<svg width="1254" height="1218" viewBox="0 0 1254 1218" fill="none" xmlns="http://www.w3.org/2000/svg">
<path d="M637.934 134.1C641.065 131.844 644.953 127.482 648.062 124.691C659.103 114.792 668.623 112.359 682.749 110.671C675.913 115.823 674.151 117.69 668.507 124.325C678.858 120.736 692.982 114.992 703.591 121.973C704.998 122.898 707.021 124.823 707.261 126.567C706.59 127.018 705.919 127.464 705.247 127.905C706.284 129.766 709.451 131.002 711.502 132.059C714.66 136.872 715.234 141.547 717.837 146.014C724.232 156.994 736.232 161.942 746.764 167.512C759.554 174.277 762.429 186.134 766.064 198.942C775.415 206.739 783.355 210.329 793.542 220.161C820.155 245.85 833.752 280.347 835.104 316.844C822.469 314.421 793.581 303.102 786.056 292.928C775.475 278.63 777.891 275.236 759.898 266.12C756.683 264.846 753.452 263.6 750.209 262.384C752.002 263.831 754.794 266.23 756.618 267.451C760.907 270.475 773.358 285.706 773.024 291.13C769.038 296.081 757.909 290.306 747.353 312.722C731.633 305.834 723.907 293.716 714.63 280.026C717.802 293.221 720.556 301.767 729.063 312.951C715.081 323.839 708.463 336.242 711.054 354.201C715.883 387.637 756.484 395.275 771.17 422.401C781.285 441.074 773.93 461.639 780.044 480.792C786.16 499.373 784.001 505.277 763.156 503.3C751.911 502.232 741.949 499.247 731.295 495.484C723.912 492.873 722.699 490.356 719.638 483.541C721.561 470.109 734.766 453.685 715.703 444.397C697.156 435.353 676.017 431.983 657.424 423.115C634.659 412.266 624.871 393.79 617.314 370.941C617.451 396.029 620.893 411.346 640.528 428.391C643.213 430.724 650.695 435.595 651.991 437.791C651.929 438.328 651.884 439.133 651.57 439.545C633.204 463.438 599.22 484.963 571.425 493.002C569.741 480.211 571.369 471.652 566.735 458.413C559.204 436.905 547.92 419.686 526.351 410.867C547.653 433.083 560.957 461.376 557.005 492.734C555.153 507.432 552.282 522.697 554.322 537.468C556.175 550.883 562.578 557.351 567.842 568.97C568.909 571.322 569.546 575.609 568.262 578.227C565.765 579.792 511.491 579.53 505.393 578.494C501.695 539.727 491.128 519.336 465.613 491.245C453.648 478.07 433.106 446.187 430.983 428.565C427.193 440.453 426.348 447.896 426.147 460.608C426.085 464.503 427.024 472.52 426.166 475.521L425.18 476.066C414.506 472.034 408.267 423.459 408.291 410.796C408.416 343.543 452.403 291.08 497.373 246.039C488.556 245.859 480.625 246.505 472.066 248.683C481.028 237.03 492.44 227.487 505.496 220.73C509.473 218.686 521.924 214.963 523.267 212.597C520.864 210.646 505.452 210.083 501.52 209.811C523.432 187.615 574.175 174.39 604.288 169.856C604.898 167.856 605.535 165.862 606.192 163.874C612.278 145.549 624.844 127.969 642.358 119.197C640.302 123.919 639.194 129.093 637.934 134.1ZM666.815 271.32C666.474 266.383 666.241 262.413 665.344 257.512C664.501 263.63 664.606 269.197 662.959 275.281C660.782 283.323 657.959 291.704 651.392 297.26C649.693 298.7 647.014 299.586 644.714 299.15C632.59 295.801 629.25 279.668 620.912 271.551C617.202 267.937 614.007 265.759 609.916 262.723C598.813 254.935 592.715 245.49 590.948 231.978C590.504 228.548 589.373 221.14 590.42 217.764C592.303 211.657 603.296 205.03 608.671 202.04C614.915 198.571 623.733 194.689 630.953 194.038C631.885 193.954 638.643 195.231 640.332 195.446C640.018 193.034 638.774 188.424 637.372 186.48C635.868 186.244 634.889 185.991 633.361 186.204C613.463 188.191 595.174 194.359 580.585 209.765C575.854 214.761 576.802 225.862 577.61 232.502C579.267 246.114 585.76 260.973 597.033 269.4C602.786 273.438 609.512 277.012 614.537 281.908C623.457 290.604 630.509 310.469 646.12 307.813C662.322 305.056 666.986 284.367 666.815 271.32ZM707.752 217.392C712.665 223.056 714.544 225.03 722.537 223.822C730.717 218.394 731.068 218.669 740.159 222.3C734.189 214.755 726.35 207.009 715.935 207.599C706.743 211.035 703.553 213.67 697.459 221.504L707.752 217.392Z" fill="#C2F03C"></path>
<path d="M505.376 605.505C508.397 605.119 511.605 605.467 514.651 605.446C558.871 605.135 602.98 605.198 647.184 606.731C654.359 606.979 661.578 606.724 668.718 607.547C670.539 609.209 670.941 611.995 671 614.425C671.797 648.054 668.524 671.832 645.669 697.712C638.14 707.2 625.975 715.083 615.152 720.358C598.091 728.663 573.788 729.128 556.132 722.254C534.965 714.019 517.767 695.978 508.727 675.329C501.235 658.215 501.33 642.069 503.127 623.901C503.716 617.95 503.131 611.304 505.376 605.505Z" fill="white"></path>
<path d="M343.426 49.844C350.453 47.5345 352.408 51.0533 354.446 57.0694C380.61 134.277 411.343 210.319 437.196 287.61C430.156 299.325 420.797 310.821 414.114 322.958C412.622 325.667 410.197 332.123 407.375 332.56C403.78 329.92 398.524 316.746 396.111 311.615C392.851 304.271 388.705 296.582 385.175 289.265L365.388 248.17L312.279 140.189L292.019 99.8933C288.842 93.4478 285.201 86.9029 282.767 80.15C282.385 79.0893 281 75.967 281.554 75.0546C285.21 69.0387 334.491 52.0562 343.426 49.844Z" fill="white"></path>
<path d="M440.121 23.1691C442.903 22.5519 446.14 22.0629 448.864 22.8689C452.111 25.2671 459.899 67.6773 461.129 73.7963L477.324 150.565C480.43 165.351 483.302 182.561 487.433 197.02C470.987 208.415 480.761 211.1 475.184 218.773C462.643 236.026 452.304 233.958 451.611 258.538C453.677 261.368 455.853 263.294 454.451 266.92L453.218 266.924C448.87 263.536 448.763 260.35 447.157 254.818L401.826 114.994C395.148 94.6779 387.366 74.4403 381.546 53.8726C380.941 51.7347 378.292 42.6649 379.465 40.8072C382.511 35.9833 431.943 25.0436 440.121 23.1691Z" fill="white"></path>
<path d="M878.366 43.7194C887.075 41.9632 929.518 60.9652 939.279 64.8264C941.13 65.5584 943.531 67.7621 944.599 69.6123C944.444 75.8421 928.291 102.321 924.509 109.246L888.359 175.714C873.75 170.935 859.092 169.12 844.369 174.033C842.746 176.368 841.613 178.325 840.623 181.018C832.319 203.522 866.967 196.856 871.538 205.107C871.309 207.955 868.914 211.578 867.431 214.39C864.663 220.115 860.864 226.089 857.786 231.777C852.732 241.11 847.879 251.19 842.361 260.207C839.376 255.574 835.903 247.542 832.874 242.33C825.541 229.723 818.602 220.991 808.588 210.647C820.576 179.676 833.866 149.277 846.244 118.574L862.407 78.8674C865.848 70.2193 872.755 49.5659 878.366 43.7194Z" fill="white"></path>
<path d="M538.82 8.01922C546.108 7.66989 551.222 6.25032 551.937 15.2649C553.177 30.8794 554.074 46.5242 555.094 62.1579L561.435 161.736C547.663 165.772 533.708 170.884 520.442 176.485C517.221 177.845 510.978 182.111 507.019 184.052L506.059 183.504L505.53 181.12C498.099 141.667 492.678 101.423 484.727 61.988C481.819 47.5688 478.747 31.9319 477.554 17.3108C488.382 13.0337 525.695 9.59804 538.82 8.01922Z" fill="white"></path>
<path d="M779.709 18.597C792.062 17.2048 827.443 28.3566 841.378 31.5207C843.938 32.1035 847.263 33.6062 848.61 36.1969C847.991 49.141 833.896 80.1086 829.01 93.2838L798.775 174.874C796.636 179.885 793.714 191.45 790.417 194.221C783.126 194.452 778.597 175.887 775.884 170.602C770.532 160.176 756.422 152.547 746.607 146.628C749.166 134.819 777.568 21.771 779.709 18.597Z" fill="white"></path>
<path d="M581.499 4.54755C592.377 3.27453 644.208 1.66831 651.157 6.04273C653.755 12.7473 647.317 88.1552 645.441 98.4934C643.166 99.875 639.974 101.361 637.495 102.557C628.17 107.05 621.003 112.651 613.05 119.117C606.77 125.745 602.728 130.816 597.69 138.606C593.361 145.311 591.53 154.059 583.392 155.447L582.577 154.613C581.835 151.938 581.479 148.117 581.497 145.357C581.65 122.041 580.996 98.5403 580.174 75.2302L578.906 30.7386C578.7 23.8821 578.063 16.0117 578.534 9.30592C578.721 6.69128 579.549 5.98935 581.499 4.54755Z" fill="white"></path>
<path d="M912.435 168.703C918.103 167.88 921.724 169.595 926.257 172.71C1003.82 225.954 963.761 335.015 879.109 351.593C842.509 358.762 806.082 351.032 774.763 330.796C767.026 325.852 750.434 316.953 760.519 306.075C763.643 302.7 771.548 299.419 776.131 300.305C782.261 301.493 788.611 306.531 794.05 309.663C814.977 321.702 837.942 329.244 862.388 327.197C943.876 324.419 983.227 223.285 913.778 173.344C912.089 172.132 912.448 170.506 912.435 168.703Z" fill="#C2F03C"></path>
<path d="M681.688 5.06924C697.625 5.81173 713.345 7.46633 729.145 9.58826C734.52 10.3099 740.179 10.6564 745.423 12.038C746.513 12.3261 749.644 13.1883 750.126 14.301C753.093 21.1637 739.151 73.5503 736.823 84.1509C734.825 93.2937 733.748 102.778 731.221 111.772C730.599 114.597 729.802 119.011 728.1 121.214C724.204 119.533 724.021 113.144 718.044 109.214C710.585 104.308 707.416 103.74 698.829 101.57C698.039 100.156 696.562 97.4339 695.305 96.5498C688.658 91.8916 677.299 93.1837 669.816 93.9217L675.871 38.378C676.869 29.0692 677.606 19.1877 679.151 9.9891C679.626 7.16666 679.882 6.75801 681.688 5.06924Z" fill="white"></path>
<path d="M666.668 446.173C671.619 446.692 689.312 451.72 693.975 453.953C696.436 457.211 664.784 540.94 666.694 554.076C667.916 562.467 674.718 574.584 669.964 580.171C665.418 582.188 653.028 580.783 647.349 580.632C637.298 580.778 623.974 580.255 613.984 579.447C606.942 578.869 615.228 560.589 616.602 556.97C622.535 541.183 626.532 524.736 628.494 507.983C629.36 501.135 630.024 485.979 632.013 480.324C637.222 475.524 642.933 471.243 648.1 466.394C654.781 460.125 660.737 453.139 666.668 446.173Z" fill="#C2F03C"></path>
<path d="M796.577 353.49C799.716 353.681 830.733 361.738 833.148 363.073C834.719 382.965 826.189 408.163 843.258 425.648C856.303 439.011 867.364 429.131 875.284 416.819C876.453 415.004 878.864 414.061 881.015 414.059C885.023 415.806 886.614 422.33 888.555 426.893C895.973 428.333 899.444 427.797 903.031 434.81C900.329 440.459 895.527 441.472 890.35 444.454C878.494 451.232 867.745 457.446 853.65 457.414C811.823 457.315 801.56 412.482 798.594 379.061C797.824 370.418 796.552 362.351 796.577 353.49Z" fill="#C2F03C"></path>
<path d="M610.742 494.196C611.098 494.237 611.814 494.59 612.183 494.74C614.446 514.01 602.595 544.601 596.282 562.646C594.467 567.84 595.68 580.424 588.773 580.28C585.343 577.488 585.43 574.105 584.89 569.761C581.562 552.536 568.298 541.588 570.406 523.06C570.766 519.891 569.458 511.602 573.273 510.313C586.398 505.867 598.334 500.194 610.742 494.196Z" fill="#C2F03C"></path>
<path d="M735.812 328.948C745.281 328.023 750.381 333.79 757.582 338.884C764.722 343.931 773.788 348.38 780.298 353.903C782.595 367.374 775.353 374.121 769.115 386.236L766.584 390.327C755.762 383.326 742.093 373.457 733.773 363.709C724.843 353.248 723.539 337.833 735.812 328.948Z" fill="white"></path>
<path d="M852.553 182.201C869.942 179.33 890.099 185.725 904.084 196.82C935.55 221.79 939.202 282.66 904.293 305.882C892.486 313.736 878.318 316.868 864.142 318.176C860.218 318.459 849.619 319.681 846.933 316.629C844.844 307.228 849.534 307.988 856.844 306.63C859.769 306.09 862.676 305.564 865.529 304.689C874.071 302.122 882.033 297.909 888.954 292.283C927.478 261.521 909.817 196.114 860.743 189.711C857.499 189.287 853.699 188.994 851.556 186.289C851.217 183.902 851.251 184.737 852.553 182.201Z" fill="#C2F03C"></path>
<path d="M92.1049 937.668L95.1449 930.676C103.758 930.98 110.953 932.348 116.729 934.78C122.505 937.212 126.812 940.607 129.649 944.964C132.588 949.22 134.057 954.337 134.057 960.316C134.057 966.497 132.638 972.071 129.801 977.036C127.065 982.001 122.86 985.903 117.185 988.74C111.51 991.577 104.417 992.996 95.9049 992.996H6.37688L15.0409 934.476L6.37688 878.996H92.7129C103.252 878.996 111.51 881.479 117.489 886.444C123.468 891.308 126.457 898.097 126.457 906.812C126.457 911.777 125.342 916.439 123.113 920.796C120.884 925.153 117.236 928.852 112.169 931.892C107.204 934.831 100.516 936.756 92.1049 937.668ZM44.6809 984.484L29.7849 967.004H83.4409C86.7849 967.004 89.4195 966.143 91.3449 964.42C93.2702 962.596 94.2329 960.164 94.2329 957.124C94.2329 954.388 93.2702 952.057 91.3449 950.132C89.5209 948.207 86.7849 947.244 83.1369 947.244H38.1449V921.708H77.3609C79.9955 921.708 82.1742 920.897 83.8969 919.276C85.7209 917.655 86.6329 915.577 86.6329 913.044C86.6329 910.713 85.8222 908.788 84.2009 907.268C82.5795 905.748 80.2995 904.988 77.3609 904.988H29.9369L44.6809 887.508L52.4329 934.476L44.6809 984.484ZM168.731 973.844V942.684H246.403V973.844H168.731ZM234.395 878.996L284.403 992.996H242.603L203.235 896.324H213.267L173.899 992.996H132.099L182.107 878.996H234.395ZM353.577 878.996C367.46 878.996 379.569 881.377 389.905 886.14C400.342 890.801 408.449 897.388 414.225 905.9C420.001 914.412 422.889 924.444 422.889 935.996C422.889 947.447 420.001 957.479 414.225 966.092C408.449 974.604 400.342 981.241 389.905 986.004C379.569 990.665 367.46 992.996 353.577 992.996H293.081V878.996H353.577ZM331.993 975.516L314.361 958.036H356.617C362.19 958.036 366.953 957.175 370.905 955.452C374.958 953.628 378.049 951.095 380.177 947.852C382.305 944.508 383.369 940.556 383.369 935.996C383.369 931.335 382.305 927.383 380.177 924.14C378.049 920.897 374.958 918.415 370.905 916.692C366.953 914.868 362.19 913.956 356.617 913.956H314.361L331.993 896.476V975.516ZM612.477 878.996V992.996H575.237V893.74L582.381 894.652L544.077 992.996H505.317L467.013 895.108L474.157 894.044V992.996H436.917V878.996H497.565L531.613 971.868H518.085L551.829 878.996H612.477ZM630.776 878.996H669.992V992.996H630.776V878.996ZM793.862 964.42L783.222 967.004V878.996H821.222V992.996H772.126L715.582 905.14L726.222 902.556V992.996H688.222V878.996H738.838L793.862 964.42ZM874.591 895.868H913.807V992.996H874.591V895.868ZM833.551 878.996H954.847V913.956H833.551V878.996ZM1028.33 995.732C1014.45 995.732 1002.29 993.249 991.852 988.284C981.516 983.319 973.46 976.377 967.684 967.46C961.908 958.441 959.02 947.953 959.02 935.996C959.02 924.039 961.908 913.601 967.684 904.684C973.46 895.665 981.516 888.673 991.852 883.708C1002.29 878.743 1014.45 876.26 1028.33 876.26C1042.21 876.26 1054.32 878.743 1064.66 883.708C1075.1 888.673 1083.2 895.665 1088.98 904.684C1094.76 913.601 1097.64 924.039 1097.64 935.996C1097.64 947.953 1094.76 958.441 1088.98 967.46C1083.2 976.377 1075.1 983.319 1064.66 988.284C1054.32 993.249 1042.21 995.732 1028.33 995.732ZM1028.33 960.772C1034.51 960.772 1039.83 959.809 1044.29 957.884C1048.75 955.857 1052.15 953.02 1054.48 949.372C1056.91 945.623 1058.12 941.164 1058.12 935.996C1058.12 930.828 1056.91 926.42 1054.48 922.772C1052.15 919.023 1048.75 916.185 1044.29 914.26C1039.83 912.233 1034.51 911.22 1028.33 911.22C1022.15 911.22 1016.83 912.233 1012.37 914.26C1007.91 916.185 1004.47 919.023 1002.04 922.772C999.706 926.42 998.54 930.828 998.54 935.996C998.54 941.164 999.706 945.623 1002.04 949.372C1004.47 953.02 1007.91 955.857 1012.37 957.884C1016.83 959.809 1022.15 960.772 1028.33 960.772ZM1217.21 964.42L1206.57 967.004V878.996H1244.57V992.996H1195.47L1138.93 905.14L1149.57 902.556V992.996H1111.57V878.996H1162.18L1217.21 964.42Z" fill="white"></path>
<path d="M372.206 1125.67L375.246 1118.68C383.86 1118.98 391.054 1120.35 396.83 1122.78C402.606 1125.21 406.913 1128.61 409.75 1132.96C412.689 1137.22 414.158 1142.34 414.158 1148.32C414.158 1154.5 412.74 1160.07 409.902 1165.04C407.166 1170 402.961 1173.9 397.286 1176.74C391.612 1179.58 384.518 1181 376.006 1181H286.478L295.142 1122.48L286.478 1067H372.814C383.353 1067 391.612 1069.48 397.59 1074.44C403.569 1079.31 406.558 1086.1 406.558 1094.81C406.558 1099.78 405.444 1104.44 403.214 1108.8C400.985 1113.15 397.337 1116.85 392.27 1119.89C387.305 1122.83 380.617 1124.76 372.206 1125.67ZM324.782 1172.48L309.886 1155H363.542C366.886 1155 369.521 1154.14 371.446 1152.42C373.372 1150.6 374.334 1148.16 374.334 1145.12C374.334 1142.39 373.372 1140.06 371.446 1138.13C369.622 1136.21 366.886 1135.24 363.238 1135.24H318.246V1109.71H357.462C360.097 1109.71 362.276 1108.9 363.998 1107.28C365.822 1105.65 366.734 1103.58 366.734 1101.04C366.734 1098.71 365.924 1096.79 364.302 1095.27C362.681 1093.75 360.401 1092.99 357.462 1092.99H310.038L324.782 1075.51L332.534 1122.48L324.782 1172.48ZM491.731 1183.73C477.848 1183.73 465.688 1181.25 455.251 1176.28C444.915 1171.32 436.859 1164.38 431.083 1155.46C425.307 1146.44 422.419 1135.95 422.419 1124C422.419 1112.04 425.307 1101.6 431.083 1092.68C436.859 1083.67 444.915 1076.67 455.251 1071.71C465.688 1066.74 477.848 1064.26 491.731 1064.26C505.613 1064.26 517.723 1066.74 528.059 1071.71C538.496 1076.67 546.603 1083.67 552.379 1092.68C558.155 1101.6 561.043 1112.04 561.043 1124C561.043 1135.95 558.155 1146.44 552.379 1155.46C546.603 1164.38 538.496 1171.32 528.059 1176.28C517.723 1181.25 505.613 1183.73 491.731 1183.73ZM491.731 1148.77C497.912 1148.77 503.232 1147.81 507.691 1145.88C512.149 1143.86 515.544 1141.02 517.875 1137.37C520.307 1133.62 521.523 1129.16 521.523 1124C521.523 1118.83 520.307 1114.42 517.875 1110.77C515.544 1107.02 512.149 1104.19 507.691 1102.26C503.232 1100.23 497.912 1099.22 491.731 1099.22C485.549 1099.22 480.229 1100.23 475.771 1102.26C471.312 1104.19 467.867 1107.02 465.435 1110.77C463.104 1114.42 461.939 1118.83 461.939 1124C461.939 1129.16 463.104 1133.62 465.435 1137.37C467.867 1141.02 471.312 1143.86 475.771 1145.88C480.229 1147.81 485.549 1148.77 491.731 1148.77ZM602.02 1115.79H640.324C644.174 1115.79 647.164 1114.88 649.292 1113.05C651.42 1111.23 652.484 1108.59 652.484 1105.15C652.484 1101.7 651.42 1099.07 649.292 1097.24C647.164 1095.42 644.174 1094.51 640.324 1094.51H596.548L614.18 1076.88V1181H574.964V1067H646.404C655.524 1067 663.478 1068.62 670.268 1071.86C677.158 1075 682.478 1079.41 686.228 1085.08C690.078 1090.76 692.004 1097.45 692.004 1105.15C692.004 1112.65 690.078 1119.28 686.228 1125.06C682.478 1130.73 677.158 1135.14 670.268 1138.28C663.478 1141.43 655.524 1143 646.404 1143H602.02V1115.79ZM615.396 1127.64H658.716L696.564 1181H651.724L615.396 1127.64ZM813.752 1152.42L803.112 1155V1067H841.112V1181H792.016L735.472 1093.14L746.112 1090.56V1181H708.112V1067H758.728L813.752 1152.42ZM961.058 1110.47V1137.52H875.178V1110.47H961.058ZM902.082 1124L895.09 1166.4L880.194 1149.99H966.682V1181H856.33L864.69 1124L856.33 1067H965.922V1098H880.194L895.09 1081.59L902.082 1124Z" fill="#C2F03C"></path>
</svg>