<svg width="2022" height="733" viewBox="0 0 2022 733" fill="none" xmlns="http://www.w3.org/2000/svg">
<path d="M357.934 134.1C361.065 131.844 364.953 127.482 368.062 124.691C379.103 114.792 388.623 112.359 402.749 110.671C395.913 115.823 394.151 117.69 388.507 124.325C398.858 120.736 412.982 114.992 423.591 121.973C424.998 122.898 427.021 124.823 427.261 126.567C426.59 127.018 425.919 127.464 425.247 127.905C426.284 129.766 429.451 131.002 431.502 132.059C434.66 136.872 435.234 141.547 437.837 146.014C444.232 156.994 456.232 161.942 466.764 167.512C479.554 174.277 482.429 186.134 486.064 198.942C495.415 206.739 503.355 210.329 513.542 220.161C540.155 245.85 553.752 280.347 555.104 316.844C542.469 314.421 513.581 303.102 506.056 292.928C495.475 278.63 497.891 275.236 479.898 266.12C476.683 264.846 473.452 263.6 470.209 262.384C472.002 263.831 474.794 266.23 476.618 267.451C480.907 270.475 493.358 285.706 493.024 291.13C489.038 296.081 477.909 290.306 467.353 312.722C451.633 305.834 443.907 293.716 434.63 280.026C437.802 293.221 440.556 301.767 449.063 312.951C435.081 323.839 428.463 336.242 431.054 354.201C435.883 387.637 476.484 395.275 491.17 422.401C501.285 441.074 493.93 461.639 500.044 480.792C506.16 499.373 504.001 505.277 483.156 503.3C471.911 502.232 461.949 499.247 451.295 495.484C443.912 492.873 442.699 490.356 439.638 483.541C441.561 470.109 454.766 453.685 435.703 444.397C417.156 435.353 396.017 431.983 377.424 423.115C354.659 412.266 344.871 393.79 337.314 370.941C337.451 396.029 340.893 411.346 360.528 428.391C363.213 430.724 370.695 435.595 371.991 437.791C371.929 438.328 371.884 439.133 371.57 439.545C353.204 463.438 319.22 484.963 291.425 493.002C289.741 480.211 291.369 471.652 286.735 458.413C279.204 436.905 267.92 419.686 246.351 410.867C267.653 433.083 280.957 461.376 277.005 492.734C275.153 507.432 272.282 522.697 274.322 537.468C276.175 550.883 282.578 557.351 287.842 568.97C288.909 571.322 289.546 575.609 288.262 578.227C285.765 579.792 231.491 579.53 225.393 578.494C221.695 539.727 211.128 519.336 185.613 491.245C173.648 478.07 153.106 446.187 150.983 428.565C147.193 440.453 146.348 447.896 146.147 460.608C146.085 464.503 147.024 472.52 146.166 475.521L145.18 476.066C134.506 472.034 128.267 423.459 128.291 410.796C128.416 343.543 172.403 291.08 217.373 246.039C208.556 245.859 200.625 246.505 192.066 248.683C201.028 237.03 212.44 227.487 225.496 220.73C229.473 218.686 241.924 214.963 243.267 212.597C240.864 210.646 225.452 210.083 221.52 209.811C243.432 187.615 294.175 174.39 324.288 169.856C324.898 167.856 325.535 165.862 326.192 163.874C332.278 145.549 344.844 127.969 362.358 119.197C360.302 123.919 359.194 129.093 357.934 134.1ZM386.815 271.32C386.474 266.383 386.241 262.413 385.344 257.512C384.501 263.63 384.606 269.197 382.959 275.281C380.782 283.323 377.959 291.704 371.392 297.26C369.693 298.7 367.014 299.586 364.714 299.15C352.59 295.801 349.25 279.668 340.912 271.551C337.202 267.937 334.007 265.759 329.916 262.723C318.813 254.935 312.715 245.49 310.948 231.978C310.504 228.548 309.373 221.14 310.42 217.764C312.303 211.657 323.296 205.03 328.671 202.04C334.915 198.571 343.733 194.689 350.953 194.038C351.885 193.954 358.643 195.231 360.332 195.446C360.018 193.034 358.774 188.424 357.372 186.48C355.868 186.244 354.889 185.991 353.361 186.204C333.463 188.191 315.174 194.359 300.585 209.765C295.854 214.761 296.802 225.862 297.61 232.502C299.267 246.114 305.76 260.973 317.033 269.4C322.786 273.438 329.512 277.012 334.537 281.908C343.457 290.604 350.509 310.469 366.12 307.813C382.322 305.056 386.986 284.367 386.815 271.32ZM427.752 217.392C432.665 223.056 434.544 225.03 442.537 223.822C450.717 218.394 451.068 218.669 460.159 222.3C454.189 214.755 446.35 207.009 435.935 207.599C426.743 211.035 423.553 213.67 417.459 221.504L427.752 217.392Z" fill="#C2F03C"></path>
<path d="M225.376 605.505C228.397 605.119 231.605 605.467 234.651 605.446C278.871 605.135 322.98 605.198 367.184 606.731C374.359 606.979 381.578 606.724 388.718 607.547C390.539 609.209 390.941 611.995 391 614.425C391.797 648.054 388.524 671.832 365.669 697.712C358.14 707.2 345.975 715.083 335.152 720.358C318.091 728.663 293.788 729.128 276.132 722.254C254.965 714.019 237.767 695.978 228.727 675.329C221.235 658.215 221.33 642.069 223.127 623.901C223.716 617.95 223.131 611.304 225.376 605.505Z" fill="white"></path>
<path d="M63.4257 49.844C70.453 47.5345 72.4077 51.0533 74.446 57.0694C100.61 134.277 131.343 210.319 157.196 287.61C150.156 299.325 140.797 310.821 134.114 322.958C132.622 325.667 130.197 332.123 127.375 332.56C123.78 329.92 118.524 316.746 116.111 311.615C112.851 304.271 108.705 296.582 105.175 289.265L85.3882 248.17L32.2789 140.189L12.0194 99.8933C8.84245 93.4478 5.20133 86.9029 2.76745 80.15C2.3852 79.0893 0.99957 75.967 1.5545 75.0546C5.21035 69.0387 54.4912 52.0562 63.4257 49.844Z" fill="white"></path>
<path d="M160.121 23.1691C162.903 22.5519 166.14 22.0629 168.864 22.8689C172.111 25.2671 179.899 67.6773 181.129 73.7963L197.324 150.565C200.43 165.351 203.302 182.561 207.433 197.02C190.987 208.415 200.761 211.1 195.184 218.773C182.643 236.026 172.304 233.958 171.611 258.538C173.677 261.368 175.853 263.294 174.451 266.92L173.218 266.924C168.87 263.536 168.763 260.35 167.157 254.818L121.826 114.994C115.148 94.6779 107.366 74.4403 101.546 53.8726C100.941 51.7347 98.2924 42.6649 99.465 40.8072C102.511 35.9833 151.943 25.0436 160.121 23.1691Z" fill="white"></path>
<path d="M598.366 43.7194C607.075 41.9632 649.518 60.9652 659.279 64.8264C661.13 65.5584 663.531 67.7621 664.599 69.6123C664.444 75.8421 648.291 102.321 644.509 109.246L608.359 175.714C593.75 170.935 579.092 169.12 564.369 174.033C562.746 176.368 561.613 178.325 560.623 181.018C552.319 203.522 586.967 196.856 591.538 205.107C591.309 207.955 588.914 211.578 587.431 214.39C584.663 220.115 580.864 226.089 577.786 231.777C572.732 241.11 567.879 251.19 562.361 260.207C559.376 255.574 555.903 247.542 552.874 242.33C545.541 229.723 538.602 220.991 528.588 210.647C540.576 179.676 553.866 149.277 566.244 118.574L582.407 78.8674C585.848 70.2193 592.755 49.5659 598.366 43.7194Z" fill="white"></path>
<path d="M258.82 8.01922C266.108 7.66989 271.222 6.25032 271.937 15.2649C273.177 30.8794 274.074 46.5242 275.094 62.1579L281.435 161.736C267.663 165.772 253.708 170.884 240.442 176.485C237.221 177.845 230.978 182.111 227.019 184.052L226.059 183.504L225.53 181.12C218.099 141.667 212.678 101.423 204.727 61.988C201.819 47.5688 198.747 31.9319 197.554 17.3108C208.382 13.0337 245.695 9.59804 258.82 8.01922Z" fill="white"></path>
<path d="M499.709 18.597C512.062 17.2048 547.443 28.3566 561.378 31.5207C563.938 32.1035 567.263 33.6062 568.61 36.1969C567.991 49.141 553.896 80.1086 549.01 93.2838L518.775 174.874C516.636 179.885 513.714 191.45 510.417 194.221C503.126 194.452 498.597 175.887 495.884 170.602C490.532 160.176 476.422 152.547 466.607 146.628C469.166 134.819 497.568 21.771 499.709 18.597Z" fill="white"></path>
<path d="M301.499 4.54755C312.377 3.27453 364.208 1.66831 371.157 6.04273C373.755 12.7473 367.317 88.1552 365.441 98.4934C363.166 99.875 359.974 101.361 357.495 102.557C348.17 107.05 341.003 112.651 333.05 119.117C326.77 125.745 322.728 130.816 317.69 138.606C313.361 145.311 311.53 154.059 303.392 155.447L302.577 154.613C301.835 151.938 301.479 148.117 301.497 145.357C301.65 122.041 300.996 98.5403 300.174 75.2302L298.906 30.7386C298.7 23.8821 298.063 16.0117 298.534 9.30592C298.721 6.69128 299.549 5.98935 301.499 4.54755Z" fill="white"></path>
<path d="M632.435 168.703C638.103 167.88 641.724 169.595 646.257 172.71C723.82 225.954 683.761 335.015 599.109 351.593C562.509 358.762 526.082 351.032 494.763 330.796C487.026 325.852 470.434 316.953 480.519 306.075C483.643 302.7 491.548 299.419 496.131 300.305C502.261 301.493 508.611 306.531 514.05 309.663C534.977 321.702 557.942 329.244 582.388 327.197C663.876 324.419 703.227 223.285 633.778 173.344C632.089 172.132 632.448 170.506 632.435 168.703Z" fill="#C2F03C"></path>
<path d="M401.688 5.06924C417.625 5.81173 433.345 7.46633 449.145 9.58826C454.52 10.3099 460.179 10.6564 465.423 12.038C466.513 12.3261 469.644 13.1883 470.126 14.301C473.093 21.1637 459.151 73.5503 456.823 84.1509C454.825 93.2937 453.748 102.778 451.221 111.772C450.599 114.597 449.802 119.011 448.1 121.214C444.204 119.533 444.021 113.144 438.044 109.214C430.585 104.308 427.416 103.74 418.829 101.57C418.039 100.156 416.562 97.4339 415.305 96.5498C408.658 91.8916 397.299 93.1837 389.816 93.9217L395.871 38.378C396.869 29.0692 397.606 19.1877 399.151 9.9891C399.626 7.16666 399.882 6.75801 401.688 5.06924Z" fill="white"></path>
<path d="M386.668 446.173C391.619 446.692 409.312 451.72 413.975 453.953C416.436 457.211 384.784 540.94 386.694 554.076C387.916 562.467 394.718 574.584 389.964 580.171C385.418 582.188 373.028 580.783 367.349 580.632C357.298 580.778 343.974 580.255 333.984 579.447C326.942 578.869 335.228 560.589 336.602 556.97C342.535 541.183 346.532 524.736 348.494 507.983C349.36 501.135 350.024 485.979 352.013 480.324C357.222 475.524 362.933 471.243 368.1 466.394C374.781 460.125 380.737 453.139 386.668 446.173Z" fill="#C2F03C"></path>
<path d="M516.577 353.49C519.716 353.681 550.733 361.738 553.148 363.073C554.719 382.965 546.189 408.163 563.258 425.648C576.303 439.011 587.364 429.131 595.284 416.819C596.453 415.004 598.864 414.061 601.015 414.059C605.023 415.806 606.614 422.33 608.555 426.893C615.973 428.333 619.444 427.797 623.031 434.81C620.329 440.459 615.527 441.472 610.35 444.454C598.494 451.232 587.745 457.446 573.65 457.414C531.823 457.315 521.56 412.482 518.594 379.061C517.824 370.418 516.552 362.351 516.577 353.49Z" fill="#C2F03C"></path>
<path d="M330.742 494.196C331.098 494.237 331.814 494.59 332.183 494.74C334.446 514.01 322.595 544.601 316.282 562.646C314.467 567.84 315.68 580.424 308.773 580.28C305.343 577.488 305.43 574.105 304.89 569.761C301.562 552.536 288.298 541.588 290.406 523.06C290.766 519.891 289.458 511.602 293.273 510.313C306.398 505.867 318.334 500.194 330.742 494.196Z" fill="#C2F03C"></path>
<path d="M455.812 328.948C465.281 328.023 470.381 333.79 477.582 338.884C484.722 343.931 493.788 348.38 500.298 353.903C502.595 367.374 495.353 374.121 489.115 386.236L486.584 390.327C475.762 383.326 462.093 373.457 453.773 363.709C444.843 353.248 443.539 337.833 455.812 328.948Z" fill="white"></path>
<path d="M572.553 182.201C589.942 179.33 610.099 185.725 624.084 196.82C655.55 221.79 659.202 282.66 624.293 305.882C612.486 313.736 598.318 316.868 584.142 318.176C580.218 318.459 569.619 319.681 566.933 316.629C564.844 307.228 569.534 307.988 576.844 306.63C579.769 306.09 582.676 305.564 585.529 304.689C594.071 302.122 602.033 297.909 608.954 292.283C647.478 261.521 629.817 196.114 580.743 189.711C577.499 189.287 573.699 188.994 571.556 186.289C571.217 183.902 571.251 184.737 572.553 182.201Z" fill="#C2F03C"></path>
<path d="M860.105 337.668L863.145 330.676C871.758 330.98 878.953 332.348 884.729 334.78C890.505 337.212 894.812 340.607 897.649 344.964C900.588 349.22 902.057 354.337 902.057 360.316C902.057 366.497 900.638 372.071 897.801 377.036C895.065 382.001 890.86 385.903 885.185 388.74C879.51 391.577 872.417 392.996 863.905 392.996H774.377L783.041 334.476L774.377 278.996H860.713C871.252 278.996 879.51 281.479 885.489 286.444C891.468 291.308 894.457 298.097 894.457 306.812C894.457 311.777 893.342 316.439 891.113 320.796C888.884 325.153 885.236 328.852 880.169 331.892C875.204 334.831 868.516 336.756 860.105 337.668ZM812.681 384.484L797.785 367.004H851.441C854.785 367.004 857.42 366.143 859.345 364.42C861.27 362.596 862.233 360.164 862.233 357.124C862.233 354.388 861.27 352.057 859.345 350.132C857.521 348.207 854.785 347.244 851.137 347.244H806.145V321.708H845.361C847.996 321.708 850.174 320.897 851.897 319.276C853.721 317.655 854.633 315.577 854.633 313.044C854.633 310.713 853.822 308.788 852.201 307.268C850.58 305.748 848.3 304.988 845.361 304.988H797.937L812.681 287.508L820.433 334.476L812.681 384.484ZM936.731 373.844V342.684H1014.4V373.844H936.731ZM1002.39 278.996L1052.4 392.996H1010.6L971.235 296.324H981.267L941.899 392.996H900.099L950.107 278.996H1002.39ZM1121.58 278.996C1135.46 278.996 1147.57 281.377 1157.9 286.14C1168.34 290.801 1176.45 297.388 1182.22 305.9C1188 314.412 1190.89 324.444 1190.89 335.996C1190.89 347.447 1188 357.479 1182.22 366.092C1176.45 374.604 1168.34 381.241 1157.9 386.004C1147.57 390.665 1135.46 392.996 1121.58 392.996H1061.08V278.996H1121.58ZM1099.99 375.516L1082.36 358.036H1124.62C1130.19 358.036 1134.95 357.175 1138.9 355.452C1142.96 353.628 1146.05 351.095 1148.18 347.852C1150.3 344.508 1151.37 340.556 1151.37 335.996C1151.37 331.335 1150.3 327.383 1148.18 324.14C1146.05 320.897 1142.96 318.415 1138.9 316.692C1134.95 314.868 1130.19 313.956 1124.62 313.956H1082.36L1099.99 296.476V375.516ZM1380.48 278.996V392.996H1343.24V293.74L1350.38 294.652L1312.08 392.996H1273.32L1235.01 295.108L1242.16 294.044V392.996H1204.92V278.996H1265.56L1299.61 371.868H1286.08L1319.83 278.996H1380.48ZM1398.78 278.996H1437.99V392.996H1398.78V278.996ZM1561.86 364.42L1551.22 367.004V278.996H1589.22V392.996H1540.13L1483.58 305.14L1494.22 302.556V392.996H1456.22V278.996H1506.84L1561.86 364.42ZM1642.59 295.868H1681.81V392.996H1642.59V295.868ZM1601.55 278.996H1722.85V313.956H1601.55V278.996ZM1796.33 395.732C1782.45 395.732 1770.29 393.249 1759.85 388.284C1749.52 383.319 1741.46 376.377 1735.68 367.46C1729.91 358.441 1727.02 347.953 1727.02 335.996C1727.02 324.039 1729.91 313.601 1735.68 304.684C1741.46 295.665 1749.52 288.673 1759.85 283.708C1770.29 278.743 1782.45 276.26 1796.33 276.26C1810.21 276.26 1822.32 278.743 1832.66 283.708C1843.1 288.673 1851.2 295.665 1856.98 304.684C1862.76 313.601 1865.64 324.039 1865.64 335.996C1865.64 347.953 1862.76 358.441 1856.98 367.46C1851.2 376.377 1843.1 383.319 1832.66 388.284C1822.32 393.249 1810.21 395.732 1796.33 395.732ZM1796.33 360.772C1802.51 360.772 1807.83 359.809 1812.29 357.884C1816.75 355.857 1820.15 353.02 1822.48 349.372C1824.91 345.623 1826.12 341.164 1826.12 335.996C1826.12 330.828 1824.91 326.42 1822.48 322.772C1820.15 319.023 1816.75 316.185 1812.29 314.26C1807.83 312.233 1802.51 311.22 1796.33 311.22C1790.15 311.22 1784.83 312.233 1780.37 314.26C1775.91 316.185 1772.47 319.023 1770.04 322.772C1767.71 326.42 1766.54 330.828 1766.54 335.996C1766.54 341.164 1767.71 345.623 1770.04 349.372C1772.47 353.02 1775.91 355.857 1780.37 357.884C1784.83 359.809 1790.15 360.772 1796.33 360.772ZM1985.21 364.42L1974.57 367.004V278.996H2012.57V392.996H1963.47L1906.93 305.14L1917.57 302.556V392.996H1879.57V278.996H1930.18L1985.21 364.42Z" fill="white"></path>
<path d="M786.206 525.668L789.246 518.676C797.86 518.98 805.054 520.348 810.83 522.78C816.606 525.212 820.913 528.607 823.75 532.964C826.689 537.22 828.158 542.337 828.158 548.316C828.158 554.497 826.74 560.071 823.902 565.036C821.166 570.001 816.961 573.903 811.286 576.74C805.612 579.577 798.518 580.996 790.006 580.996H700.478L709.142 522.476L700.478 466.996H786.814C797.353 466.996 805.612 469.479 811.59 474.444C817.569 479.308 820.558 486.097 820.558 494.812C820.558 499.777 819.444 504.439 817.214 508.796C814.985 513.153 811.337 516.852 806.27 519.892C801.305 522.831 794.617 524.756 786.206 525.668ZM738.782 572.484L723.886 555.004H777.542C780.886 555.004 783.521 554.143 785.446 552.42C787.372 550.596 788.334 548.164 788.334 545.124C788.334 542.388 787.372 540.057 785.446 538.132C783.622 536.207 780.886 535.244 777.238 535.244H732.246V509.708H771.462C774.097 509.708 776.276 508.897 777.998 507.276C779.822 505.655 780.734 503.577 780.734 501.044C780.734 498.713 779.924 496.788 778.302 495.268C776.681 493.748 774.401 492.988 771.462 492.988H724.038L738.782 475.508L746.534 522.476L738.782 572.484ZM905.731 583.732C891.848 583.732 879.688 581.249 869.251 576.284C858.915 571.319 850.859 564.377 845.083 555.46C839.307 546.441 836.419 535.953 836.419 523.996C836.419 512.039 839.307 501.601 845.083 492.684C850.859 483.665 858.915 476.673 869.251 471.708C879.688 466.743 891.848 464.26 905.731 464.26C919.613 464.26 931.723 466.743 942.059 471.708C952.496 476.673 960.603 483.665 966.379 492.684C972.155 501.601 975.043 512.039 975.043 523.996C975.043 535.953 972.155 546.441 966.379 555.46C960.603 564.377 952.496 571.319 942.059 576.284C931.723 581.249 919.613 583.732 905.731 583.732ZM905.731 548.772C911.912 548.772 917.232 547.809 921.691 545.884C926.149 543.857 929.544 541.02 931.875 537.372C934.307 533.623 935.523 529.164 935.523 523.996C935.523 518.828 934.307 514.42 931.875 510.772C929.544 507.023 926.149 504.185 921.691 502.26C917.232 500.233 911.912 499.22 905.731 499.22C899.549 499.22 894.229 500.233 889.771 502.26C885.312 504.185 881.867 507.023 879.435 510.772C877.104 514.42 875.939 518.828 875.939 523.996C875.939 529.164 877.104 533.623 879.435 537.372C881.867 541.02 885.312 543.857 889.771 545.884C894.229 547.809 899.549 548.772 905.731 548.772ZM1016.02 515.788H1054.32C1058.17 515.788 1061.16 514.876 1063.29 513.052C1065.42 511.228 1066.48 508.593 1066.48 505.148C1066.48 501.703 1065.42 499.068 1063.29 497.244C1061.16 495.42 1058.17 494.508 1054.32 494.508H1010.55L1028.18 476.876V580.996H988.964V466.996H1060.4C1069.52 466.996 1077.48 468.617 1084.27 471.86C1091.16 475.001 1096.48 479.409 1100.23 485.084C1104.08 490.759 1106 497.447 1106 505.148C1106 512.647 1104.08 519.284 1100.23 525.06C1096.48 530.735 1091.16 535.143 1084.27 538.284C1077.48 541.425 1069.52 542.996 1060.4 542.996H1016.02V515.788ZM1029.4 527.644H1072.72L1110.56 580.996H1065.72L1029.4 527.644ZM1227.75 552.42L1217.11 555.004V466.996H1255.11V580.996H1206.02L1149.47 493.14L1160.11 490.556V580.996H1122.11V466.996H1172.73L1227.75 552.42ZM1375.06 510.468V537.524H1289.18V510.468H1375.06ZM1316.08 523.996L1309.09 566.404L1294.19 549.988H1380.68V580.996H1270.33L1278.69 523.996L1270.33 466.996H1379.92V498.004H1294.19L1309.09 481.588L1316.08 523.996Z" fill="#C2F03C"></path>
</svg>